<svg data-name="Layer 1" xmlns="http://www.w3.org/2000/svg"
  xmlns:xlink="http://www.w3.org/1999/xlink" viewBox="0 0 499.76 499.76">
  <defs>
    <linearGradient id="a" x1="12" y1="283.01" x2="77.49" y2="348.5" gradientUnits="userSpaceOnUse">
      <stop offset="0" stop-color="#2484c6" />
      <stop offset="1" stop-color="#14b7a5" />
    </linearGradient>
    <linearGradient id="b" x1="84.1" y1="70.88" x2="149.93" y2="136.7" xlink:href="#a" />
    <linearGradient id="c" x1="238.66" y1="377.4" x2="339.01" y2="477.75" xlink:href="#a" />
    <linearGradient id="d" x1="193.58" y1="181.82" x2="312.88" y2="301.12" xlink:href="#a" />
    <linearGradient id="e" x1="422.56" y1="229.64" x2="488.39" y2="295.48" xlink:href="#a" />
    <linearGradient id="f" x1="306.39" y1="41.73" x2="372.21" y2="107.55" xlink:href="#a" />
  </defs>
  <path
    d="M0 315.99c0 26.63 20.17 48.17 45.1 48.17 27.52 0 44.35-27.14 45.13-48.17.5-13.54-5.69-23.6-7.38-26.27C57.55 250.35.71 267.76 0 315.99Zm42.73-26.57c-10.27 5.87-17.67 14.47-22.32 21.13-1.76 2.52-5.51.76-4.93-2.32 3.54-18.85 16.06-23.61 25.74-24.34 2.95-.23 4.12 4.03 1.51 5.53Z"
    style="stroke-width:0;fill:url(#a)" />
  <path
    d="M117.1 55.74c-24.92 0-45.14 21.53-45.14 48.14-.37 37.08 39.22 61.15 68.99 40.73a49.91 49.91 0 0 0 10.47-9.89c2.17-2.76 3.81-5.44 5.05-7.8 16.8-30.78-5.16-71.58-39.37-71.19Zm-2.76 20.16c-10.27 5.87-17.67 14.47-22.32 21.13-1.76 2.52-5.51.76-4.93-2.32 3.54-18.85 16.06-23.61 25.74-24.34 2.95-.23 4.11 4.03 1.51 5.53Z"
    style="fill:url(#b);stroke-width:0" />
  <path
    d="m299.97 403.88-12.56-58.56c-7.08 2.63-14.46 4.52-22.15 5.46l12.57 58.56c-14.42 8.05-24.36 23.96-24.36 42.54 2.36 63.82 87.86 63.85 90.23 0 .03-26.11-19.46-47.24-43.73-48.01Zm-6.19 21.39c-10.27 5.87-17.67 14.47-22.32 21.13-1.76 2.52-5.51.76-4.93-2.32 3.54-18.85 16.06-23.61 25.74-24.34 2.95-.23 4.12 4.03 1.51 5.53Z"
    style="fill:url(#c);stroke-width:0" />
  <path
    d="M334.88 241.47c0-47.97-36.43-86.86-81.37-86.86-107.92 4.53-107.89 169.21 0 173.73 44.94 0 81.37-38.89 81.37-86.86Zm-94.52-49.19c-13.96 7.98-24.04 19.68-30.35 28.73-2.39 3.44-7.49 1.04-6.71-3.16 4.81-25.63 21.84-32.1 35-33.09 4.02-.3 5.6 5.49 2.05 7.52Z"
    style="fill:url(#d);stroke-width:0" />
  <path
    d="M454.92 214.55c-27.48.61-49.13 27.34-44.44 55.65 3.47 19.13 20.47 40.61 44.43 40.61 59.8-2.48 59.78-93.77 0-96.26Zm-2.18 18.52c-10.27 5.87-17.67 14.47-22.32 21.13-1.76 2.52-5.51.76-4.93-2.32 3.54-18.85 16.06-23.61 25.74-24.34 2.95-.22 4.12 4.03 1.51 5.53Z"
    style="fill:url(#e);stroke-width:0" />
  <path
    d="M365.97 0c-24.92 0-45.14 21.53-45.14 48.14-.14 13.93 5.37 26.03 13.87 34.62l-38.65 67.7c6.92 3.26 13.45 7.34 19.47 12.1l38.83-67.96c11.42 3.37 24.15 2.04 35.47-5.72a49.91 49.91 0 0 0 10.47-9.89c2.17-2.76 3.81-5.44 5.05-7.8C422.14 40.41 400.19-.39 365.97 0Zm-2.76 20.16c-10.27 5.87-17.67 14.47-22.32 21.13-1.76 2.52-5.51.76-4.93-2.32 3.54-18.85 16.06-23.61 25.74-24.34 2.95-.23 4.11 4.03 1.51 5.53Z"
    style="fill:url(#f);stroke-width:0" />
</svg>